<svg xmlns="http://www.w3.org/2000/svg" xmlns:xlink="http://www.w3.org/1999/xlink" id="Ebene_2" data-name="Ebene 2" viewBox="0 0 74.98 82.79"><defs><style>      .cls-1 {        clip-path: url(#clippath);      }      .cls-2 {        fill: none;      }      .cls-2, .cls-3, .cls-4 {        stroke-width: 0px;      }      .cls-3 {        fill: #3a7896;      }      .cls-4 {        fill: #fff;      }    </style><clipPath id="clippath"><rect class="cls-2" width="74.98" height="82.78"></rect></clipPath></defs><g id="Ebene_1_Kopie_2_Kopie" data-name="Ebene 1 Kopie 2 Kopie"><g class="cls-1"><g><path class="cls-3" d="m74.98,55.95v-29.12c0-4.39-2.34-8.43-6.13-10.63L43.62,1.65c-3.8-2.19-8.48-2.19-12.27,0L6.13,16.2c-3.8,2.19-6.13,6.24-6.13,10.63v29.12c0,4.39,2.34,8.43,6.13,10.63l25.22,14.56c3.8,2.19,8.48,2.19,12.27,0l25.22-14.56c3.8-2.19,6.13-6.24,6.13-10.63h0Z"></path><path class="cls-4" d="m17.54,57.59l-3.13-3.24,16.75-16.75,8.93,8.93,6.47-7.26c-1.9-2.23-4.13-4-6.7-5.3s-5.4-1.95-8.48-1.95c-2.64,0-5.14.49-7.48,1.48s-4.47,2.32-6.36,3.99l-3.13-3.24c2.31-2.08,4.89-3.72,7.76-4.91,2.87-1.19,5.94-1.79,9.21-1.79,3.65,0,7.01.73,10.1,2.2,3.09,1.47,5.79,3.53,8.09,6.17l6.36-7.26,3.13,3.24-6.7,7.59c1.23,1.97,2.22,4.11,2.99,6.42s1.26,4.74,1.48,7.31h-4.47c-.22-1.86-.6-3.64-1.14-5.33s-1.24-3.3-2.09-4.83l-8.82,9.94-9.15-9.04-13.62,13.62Z"></path></g></g></g></svg>