<?xml version="1.0" encoding="UTF-8"?>
<svg xmlns="http://www.w3.org/2000/svg" xmlns:xlink="http://www.w3.org/1999/xlink" id="Ebene_2" data-name="Ebene 2" viewBox="0 0 74.98 82.79">
  <defs>
    <style>
      .cls-1 {
        clip-path: url(#clippath);
      }

      .cls-2 {
        fill: none;
      }

      .cls-2, .cls-3, .cls-4 {
        stroke-width: 0px;
      }

      .cls-3 {
        fill: #2c6eb5;
      }

      .cls-4 {
        fill: #fff;
      }
    </style>
    <clipPath id="clippath">
      <rect class="cls-2" width="74.98" height="82.78"></rect>
    </clipPath>
  </defs>
  <g id="Ebene_1_Kopie_2_Kopie" data-name="Ebene 1 Kopie 2 Kopie">
    <g>
      <g class="cls-1">
        <path class="cls-3" d="m74.98,55.95v-29.12c0-4.39-2.34-8.43-6.13-10.63L43.62,1.65c-3.8-2.19-8.48-2.19-12.27,0L6.13,16.2c-3.8,2.19-6.13,6.24-6.13,10.63v29.12c0,4.39,2.34,8.43,6.13,10.63l25.22,14.56c3.8,2.19,8.48,2.19,12.27,0l25.22-14.56c3.8-2.19,6.13-6.24,6.13-10.63h0Z"></path>
      </g>
      <path class="cls-4" d="m53.51,34.68c0-.48-.1-.82-.46-1.16-1.42-1.36-2.79-2.76-4.18-4.15-2.35-2.35-4.69-4.69-7.04-7.04-.19-.19-.39-.35-.69-.35-5.2,0-10.4,0-15.61.02-.51,0-1.06.13-1.53.33-1.63.71-2.48,2.01-2.49,3.78-.02,5.26,0,10.52,0,15.79-.01,0-.02,0-.03,0,0,1.88,0,3.77,0,5.65,0,3.39,0,6.78,0,10.17,0,.28,0,.56.06.83.39,2.07,2.05,3.44,4.16,3.44,7.89,0,15.79,0,23.68,0,.32,0,.65-.05.97-.12,1.86-.4,3.18-2.14,3.16-3.97-.02-2.15.02-4.3.02-6.45,0-1.99-.02-3.98-.02-5.97,0-3.59,0-7.19,0-10.78Zm-4.1,18.23c-.43-.41-.88-.81-1.3-1.22-.68-.66-1.33-1.34-2.01-2-.18-.17-.19-.3-.06-.51.61-.95,1.04-1.97,1.25-3.08.61-3.25-.11-6.16-2.27-8.68-1.47-1.72-3.34-2.78-5.54-3.25-1.16-.25-2.33-.26-3.52-.07-2.3.37-4.23,1.42-5.81,3.1-1.28,1.36-2.07,2.98-2.46,4.8-.89,4.18,1.14,8.23,4.37,10.32,1.29.84,2.68,1.39,4.21,1.58,2.31.29,4.45-.22,6.42-1.43.23-.14.36-.1.53.07,1.69,1.7,3.39,3.4,5.09,5.1.05.05.1.11.17.21-.14,0-.24.02-.33.02-7.4,0-14.81,0-22.21,0-.31,0-.38-.09-.38-.39,0-10.33,0-20.65,0-30.98,0-.4,0-.41.4-.41,4.4,0,8.81,0,13.21,0,.18,0,.4.09.52.21,3.19,3.18,6.38,6.36,9.56,9.55.1.1.17.28.17.42,0,5.47,0,10.94,0,16.41,0,.08-.01.17-.02.21Zm-6.03-8.99c0,2.93-2.29,5.9-5.81,5.91-3.38.01-5.92-2.81-5.93-5.89-.02-3.1,2.7-5.92,5.86-5.84,2.84-.07,5.87,2.26,5.88,5.82Z"></path>
    </g>
  </g>
</svg>
