<?xml version="1.0" encoding="UTF-8"?>
<svg xmlns="http://www.w3.org/2000/svg" xmlns:xlink="http://www.w3.org/1999/xlink" id="Ebene_2" data-name="Ebene 2" viewBox="0 0 74.98 82.79">
  <defs>
    <style>
      .cls-1 {
        clip-path: url(#clippath);
      }

      .cls-2 {
        fill: none;
      }

      .cls-2, .cls-3, .cls-4 {
        stroke-width: 0px;
      }

      .cls-3 {
        fill: #61a431;
      }

      .cls-4 {
        fill: #fff;
      }
    </style>
    <clipPath id="clippath">
      <rect class="cls-2" width="74.98" height="82.78"></rect>
    </clipPath>
  </defs>
  <g id="Ebene_1_Kopie_2_Kopie" data-name="Ebene 1 Kopie 2 Kopie">
    <g>
      <g class="cls-1">
        <path class="cls-3" d="m74.98,55.95v-29.12c0-4.39-2.34-8.43-6.13-10.63L43.62,1.65c-3.8-2.19-8.48-2.19-12.27,0L6.13,16.2c-3.8,2.19-6.13,6.24-6.13,10.63v29.12c0,4.39,2.34,8.43,6.13,10.63l25.22,14.56c3.8,2.19,8.48,2.19,12.27,0l25.22-14.56c3.8-2.19,6.13-6.24,6.13-10.63h0Z"></path>
      </g>
      <g>
        <path class="cls-4" d="m15.54,41.5c-.04.1-.04.26.01.37.49,1.03.97,2.08,1.51,3.09,1.28,2.37,3.08,4.32,5.07,6.09,2.31,2.05,4.96,3.52,7.89,4.49,1.69.56,3.43.92,5.21,1.09,1.83.18,3.64.12,5.45-.11,1.18-.15,2.35-.41,3.49-.74,3.62-1.06,6.8-2.9,9.54-5.54,2.47-2.39,4.4-5.12,5.7-8.3.05-.13.09-.32.04-.44-1.12-2.68-2.58-5.15-4.62-7.25-1.81-1.86-3.74-3.55-6.05-4.79-2.3-1.24-4.72-2.11-7.29-2.51-1.42-.22-2.87-.27-4.25-.4-1.22.12-2.38.17-3.53.35-1.55.24-3.07.64-4.54,1.22-2.23.87-4.32,1.97-6.17,3.52-1.38,1.16-2.71,2.35-3.86,3.74-1.52,1.85-2.69,3.9-3.59,6.12Zm4.59-.03c1.43-2.79,3.38-5.14,5.93-6.99,2.21-1.61,4.67-2.69,7.33-3.28,1.5-.33,3.03-.49,4.56-.44,4.31.14,8.19,1.51,11.59,4.17,2.16,1.69,3.85,3.78,5.14,6.2.06.11.15.22.18.34.03.12.05.28,0,.39-.86,1.67-1.91,3.21-3.16,4.6-1.28,1.43-2.83,2.52-4.46,3.49-1.87,1.11-3.88,1.84-6,2.27-1.27.26-2.56.37-3.86.34-4.65-.03-8.78-1.54-12.36-4.51-2.05-1.7-3.68-3.76-4.87-6.15-.06-.12-.08-.32-.02-.44Z"></path>
        <path class="cls-4" d="m37.18,50.74c5.45.15,9.36-4.28,9.37-9.11,0-4.87-4.21-9.13-9.31-9.03-4.6.09-8.86,4.1-8.81,9.06,0,5.11,4.1,8.95,8.75,9.08Zm.35-13.98c2.8.04,4.85,2.38,4.84,4.95-.01,2.64-2.3,4.95-4.93,4.84-2.23.13-4.87-1.88-4.85-4.97.02-2.62,2.26-4.86,4.94-4.82Z"></path>
      </g>
    </g>
  </g>
</svg>
