<svg xmlns="http://www.w3.org/2000/svg" xmlns:xlink="http://www.w3.org/1999/xlink" version="1.1" width="256" height="256" viewBox="0 0 256 256" xml:space="preserve">
<g style="stroke: none; stroke-width: 0; stroke-dasharray: none; stroke-linecap: butt; stroke-linejoin: miter; stroke-miterlimit: 10; fill: none; fill-rule: nonzero; opacity: 1;" transform="translate(1.4065934065934016 1.4065934065934016) scale(2.81 2.81)">
	<path d="M 23.715 27.99 c -0.533 0.026 -0.951 0.466 -0.951 0.999 V 44.22 c 0 21.417 11.03 29.369 21.819 34.324 c 0.133 0.061 0.275 0.091 0.417 0.091 s 0.285 -0.03 0.417 -0.091 c 10.79 -4.955 21.819 -12.907 21.819 -34.324 V 28.989 c 0 -0.533 -0.418 -0.973 -0.951 -0.999 c -6.803 -0.333 -13.734 -3.754 -20.603 -10.167 c -0.385 -0.358 -0.98 -0.358 -1.365 0 C 37.449 24.235 30.517 27.656 23.715 27.99 z M 65.236 29.922 V 44.22 c 0 20.01 -10.158 27.609 -20.236 32.313 C 34.922 71.829 24.764 64.231 24.764 44.22 V 29.922 C 31.511 29.331 38.31 25.968 45 19.912 C 51.689 25.968 58.489 29.331 65.236 29.922 z" style="stroke: none; stroke-width: 1; stroke-dasharray: none; stroke-linecap: butt; stroke-linejoin: miter; stroke-miterlimit: 10; fill: rgb(106,176,52); fill-rule: nonzero; opacity: 1;" transform=" matrix(1 0 0 1 0 0) " stroke-linecap="round"/>
	<path d="M 41.52 7.598 l -4.055 4.713 c -0.36 0.419 -0.313 1.05 0.105 1.41 c 0.189 0.163 0.421 0.242 0.652 0.242 c 0.281 0 0.561 -0.118 0.758 -0.348 l 5.533 -6.431 c 0.032 -0.037 0.043 -0.082 0.068 -0.122 c 0.039 -0.06 0.079 -0.117 0.104 -0.185 c 0.025 -0.067 0.032 -0.135 0.042 -0.205 c 0.007 -0.047 0.028 -0.09 0.028 -0.139 c 0 -0.013 -0.007 -0.024 -0.007 -0.037 c -0.003 -0.072 -0.024 -0.14 -0.042 -0.21 c -0.015 -0.057 -0.022 -0.116 -0.046 -0.168 c -0.024 -0.053 -0.064 -0.097 -0.098 -0.145 c -0.041 -0.059 -0.078 -0.12 -0.131 -0.169 c -0.009 -0.009 -0.013 -0.021 -0.023 -0.029 l -6.431 -5.533 c -0.419 -0.36 -1.05 -0.312 -1.41 0.105 c -0.36 0.419 -0.313 1.05 0.105 1.41 l 4.489 3.862 C 19.078 6.966 1.522 25.351 1.522 47.767 c 0 2.471 0.215 4.947 0.64 7.362 c 0.085 0.485 0.507 0.827 0.984 0.827 c 0.057 0 0.116 -0.005 0.174 -0.015 c 0.544 -0.096 0.908 -0.614 0.812 -1.158 c -0.404 -2.302 -0.609 -4.662 -0.609 -7.017 C 3.522 26.332 20.371 8.762 41.52 7.598 z" style="stroke: none; stroke-width: 1; stroke-dasharray: none; stroke-linecap: butt; stroke-linejoin: miter; stroke-miterlimit: 10; fill: rgb(106,176,52); fill-rule: nonzero; opacity: 1;" transform=" matrix(1 0 0 1 0 0) " stroke-linecap="round"/>
	<path d="M 69.596 78.607 C 62.374 84.664 53.197 88 43.755 88 c -13.557 0 -26.245 -6.921 -33.648 -18.19 l 6.05 1.144 c 0.544 0.101 1.066 -0.254 1.168 -0.797 c 0.103 -0.542 -0.254 -1.065 -0.796 -1.168 l -8.336 -1.576 c -0.544 -0.101 -1.066 0.254 -1.168 0.797 l -1.577 8.335 c -0.103 0.542 0.254 1.065 0.796 1.168 c 0.063 0.012 0.125 0.018 0.187 0.018 c 0.471 0 0.891 -0.334 0.981 -0.814 l 1.11 -5.869 C 16.308 82.795 29.581 90 43.755 90 c 9.911 0 19.544 -3.502 27.126 -9.86 c 0.423 -0.355 0.479 -0.986 0.124 -1.409 C 70.649 78.307 70.021 78.254 69.596 78.607 z" style="stroke: none; stroke-width: 1; stroke-dasharray: none; stroke-linecap: butt; stroke-linejoin: miter; stroke-miterlimit: 10; fill: rgb(106,176,52); fill-rule: nonzero; opacity: 1;" transform=" matrix(1 0 0 1 0 0) " stroke-linecap="round"/>
	<path d="M 88.423 65.259 c -0.183 -0.521 -0.751 -0.794 -1.274 -0.614 L 81.561 66.6 c 2.901 -5.821 4.428 -12.278 4.428 -18.834 c 0 -17.693 -11.166 -33.647 -27.785 -39.697 c -0.518 -0.191 -1.093 0.079 -1.281 0.597 c -0.189 0.519 0.078 1.093 0.598 1.282 c 15.832 5.764 26.469 20.962 26.469 37.818 c 0 6.322 -1.497 12.546 -4.327 18.145 l -2.049 -5.857 c -0.183 -0.521 -0.752 -0.796 -1.274 -0.614 c -0.521 0.183 -0.796 0.753 -0.614 1.274 l 2.76 7.889 c 0.054 0.273 0.21 0.523 0.47 0.674 c 0.157 0.092 0.33 0.135 0.5 0.135 c 0.161 0 0.319 -0.042 0.461 -0.117 l 7.892 -2.762 C 88.33 66.351 88.605 65.78 88.423 65.259 z" style="stroke: none; stroke-width: 1; stroke-dasharray: none; stroke-linecap: butt; stroke-linejoin: miter; stroke-miterlimit: 10; fill: rgb(106,176,52); fill-rule: nonzero; opacity: 1;" transform=" matrix(1 0 0 1 0 0) " stroke-linecap="round"/>
	<path d="M 39.505 61.21 h 10.989 c 1.853 0 3.36 -1.507 3.36 -3.359 V 46.304 c 0 -1.725 -1.312 -3.134 -2.988 -3.322 v -4.325 c 0 -3.235 -2.632 -5.867 -5.866 -5.867 c -3.235 0 -5.867 2.632 -5.867 5.867 v 4.325 c -1.676 0.188 -2.988 1.597 -2.988 3.322 v 11.547 C 36.146 59.703 37.653 61.21 39.505 61.21 z M 41.133 38.656 c 0 -2.132 1.734 -3.867 3.867 -3.867 c 2.132 0 3.866 1.734 3.866 3.867 v 4.288 h -7.733 V 38.656 z M 38.146 46.304 c 0 -0.75 0.61 -1.36 1.36 -1.36 h 0.628 h 9.733 h 0.628 c 0.75 0 1.36 0.61 1.36 1.36 v 11.547 c 0 0.75 -0.61 1.359 -1.36 1.359 H 39.505 c -0.75 0 -1.36 -0.609 -1.36 -1.359 V 46.304 z" style="stroke: none; stroke-width: 1; stroke-dasharray: none; stroke-linecap: butt; stroke-linejoin: miter; stroke-miterlimit: 10; fill: rgb(106,176,52); fill-rule: nonzero; opacity: 1;" transform=" matrix(1 0 0 1 0 0) " stroke-linecap="round"/>
	<path d="M 45 55.384 c 0.552 0 1 -0.447 1 -1 v -3.83 c 0 -0.553 -0.448 -1 -1 -1 s -1 0.447 -1 1 v 3.83 C 44 54.937 44.448 55.384 45 55.384 z" style="stroke: none; stroke-width: 1; stroke-dasharray: none; stroke-linecap: butt; stroke-linejoin: miter; stroke-miterlimit: 10; fill: rgb(106,176,52); fill-rule: nonzero; opacity: 1;" transform=" matrix(1 0 0 1 0 0) " stroke-linecap="round"/>
</g>
</svg>