<svg xmlns="http://www.w3.org/2000/svg" xmlns:xlink="http://www.w3.org/1999/xlink" version="1.1" width="256" height="256" viewBox="0 0 256 256" xml:space="preserve">
<g style="stroke: none; stroke-width: 0; stroke-dasharray: none; stroke-linecap: butt; stroke-linejoin: miter; stroke-miterlimit: 10; fill: none; fill-rule: nonzero; opacity: 1;" transform="translate(1.4065934065934016 1.4065934065934016) scale(2.81 2.81)">
	<path d="M 74.676 90 H 15.324 c -1.571 0 -2.844 -1.273 -2.844 -2.844 V 2.844 C 12.48 1.273 13.753 0 15.324 0 h 59.352 c 1.571 0 2.844 1.273 2.844 2.844 v 84.312 C 77.52 88.727 76.247 90 74.676 90 z" style="stroke: none; stroke-width: 1; stroke-dasharray: none; stroke-linecap: butt; stroke-linejoin: miter; stroke-miterlimit: 10; fill: rgb(111,178,6); fill-rule: nonzero; opacity: 1;" transform=" matrix(1 0 0 1 0 0) " stroke-linecap="round"/>
	<path d="M 64.07 61.203 h -9.732 c -1.104 0 -2 -0.896 -2 -2 v -5.288 c 0 -3.786 3.08 -6.866 6.866 -6.866 s 6.866 3.08 6.866 6.866 v 5.288 C 66.07 60.308 65.175 61.203 64.07 61.203 z M 56.338 57.203 h 5.732 v -3.288 c 0 -1.58 -1.286 -2.866 -2.866 -2.866 s -2.866 1.286 -2.866 2.866 V 57.203 z" style="stroke: none; stroke-width: 1; stroke-dasharray: none; stroke-linecap: butt; stroke-linejoin: miter; stroke-miterlimit: 10; fill: rgb(255,255,255); fill-rule: nonzero; opacity: 1;" transform=" matrix(1 0 0 1 0 0) " stroke-linecap="round"/>
	<path d="M 64.698 57.203 H 53.709 c -2.403 0 -4.359 1.956 -4.359 4.36 v 11.546 c 0 2.404 1.956 4.36 4.359 4.36 h 10.989 c 2.404 0 4.36 -1.956 4.36 -4.36 V 61.563 C 69.059 59.159 67.103 57.203 64.698 57.203 z M 61.204 68.644 c 0 1.104 -0.896 2 -2 2 s -2 -0.896 -2 -2 v -2.831 c 0 -1.104 0.896 -2 2 -2 s 2 0.896 2 2 V 68.644 z" style="stroke: none; stroke-width: 1; stroke-dasharray: none; stroke-linecap: butt; stroke-linejoin: miter; stroke-miterlimit: 10; fill: rgb(255,255,255); fill-rule: nonzero; opacity: 1;" transform=" matrix(1 0 0 1 0 0) " stroke-linecap="round"/>
	<path d="M 67.059 31.549 H 22.941 c -1.104 0 -2 -0.896 -2 -2 V 14.531 c 0 -1.104 0.896 -2 2 -2 h 44.117 c 1.104 0 2 0.896 2 2 v 15.019 C 69.059 30.654 68.163 31.549 67.059 31.549 z" style="stroke: none; stroke-width: 1; stroke-dasharray: none; stroke-linecap: butt; stroke-linejoin: miter; stroke-miterlimit: 10; fill: rgb(255,255,255); fill-rule: nonzero; opacity: 1;" transform=" matrix(1 0 0 1 0 0) " stroke-linecap="round"/>
	<path d="M 67.059 43.029 H 22.941 c -1.104 0 -2 -0.896 -2 -2 s 0.896 -2 2 -2 h 44.117 c 1.104 0 2 0.896 2 2 S 68.163 43.029 67.059 43.029 z" style="stroke: none; stroke-width: 1; stroke-dasharray: none; stroke-linecap: butt; stroke-linejoin: miter; stroke-miterlimit: 10; fill: rgb(255,255,255); fill-rule: nonzero; opacity: 1;" transform=" matrix(1 0 0 1 0 0) " stroke-linecap="round"/>
	<path d="M 45.059 54.51 H 22.941 c -1.104 0 -2 -0.896 -2 -2 s 0.896 -2 2 -2 h 22.117 c 1.104 0 2 0.896 2 2 S 46.163 54.51 45.059 54.51 z" style="stroke: none; stroke-width: 1; stroke-dasharray: none; stroke-linecap: butt; stroke-linejoin: miter; stroke-miterlimit: 10; fill: rgb(255,255,255); fill-rule: nonzero; opacity: 1;" transform=" matrix(1 0 0 1 0 0) " stroke-linecap="round"/>
	<path d="M 42.059 65.989 H 22.941 c -1.104 0 -2 -0.896 -2 -2 s 0.896 -2 2 -2 h 19.117 c 1.104 0 2 0.896 2 2 S 43.163 65.989 42.059 65.989 z" style="stroke: none; stroke-width: 1; stroke-dasharray: none; stroke-linecap: butt; stroke-linejoin: miter; stroke-miterlimit: 10; fill: rgb(255,255,255); fill-rule: nonzero; opacity: 1;" transform=" matrix(1 0 0 1 0 0) " stroke-linecap="round"/>
	<path d="M 42.059 77.47 H 22.941 c -1.104 0 -2 -0.896 -2 -2 s 0.896 -2 2 -2 h 19.117 c 1.104 0 2 0.896 2 2 S 43.163 77.47 42.059 77.47 z" style="stroke: none; stroke-width: 1; stroke-dasharray: none; stroke-linecap: butt; stroke-linejoin: miter; stroke-miterlimit: 10; fill: rgb(255,255,255); fill-rule: nonzero; opacity: 1;" transform=" matrix(1 0 0 1 0 0) " stroke-linecap="round"/>
</g>
</svg>