<svg version="1.2" xmlns="http://www.w3.org/2000/svg" viewBox="0 0 105 105" width="105" height="105">
	<title>safety_2_logo-svg</title>
	<defs>
		<linearGradient id="g1" x2="1" gradientUnits="userSpaceOnUse" gradientTransform="matrix(-42.37,-73.39,81.013,-46.771,73.26,88.61)">
			<stop offset="0" stop-color="#bcb9a4"/>
			<stop offset=".37" stop-color="#c1c559"/>
			<stop offset=".72" stop-color="#c6cf18"/>
			<stop offset=".88" stop-color="#c8d400"/>
		</linearGradient>
	</defs>
	<style>
		.s0 { fill: url(#g1) } 
		.s1 { fill: #1d1d1b } 
	</style>
	<path id="Layer" class="s0" d="m94.4 60.4l-42.8-23.2 1.5-2.6 41.3 22.4v-21.5c0-5-2.6-9.6-6.9-12l-28.5-16.5c-4.3-2.5-9.6-2.5-13.9 0l-28.5 16.5c-4.2 2.4-6.9 7-6.9 12v6.2l42.6 23.1-1.4 2.6-41.2-22.3v23.3c0 4.9 2.7 9.5 6.9 12l28.5 16.4c4.3 2.5 9.6 2.5 13.9 0l28.5-16.4c4.3-2.5 6.9-7.1 6.9-12v-8z"/>
	<g id="Layer">
		<path id="Layer" class="s1" d="m138.8 78.7q-7.1 0-11.7-2.4-4.5-2.4-6.5-5.9-2.1-3.4-2.1-6.6h11.9q0 1.3 1 2.5 0.9 1.3 2.7 2 1.9 0.8 4.7 0.8 3.9 0 5.8-1.3 2-1.2 2-3.1 0-1.9-1.3-3-1.2-1-4.4-1.6l-7-1.1q-7.5-1.2-11.3-4.6-3.8-3.3-3.8-8.8 0-4 2.2-7.2 2.2-3.2 6.7-5.2 4.4-1.9 10.6-1.9 6.2 0 10.7 2.2 4.5 2.2 6.8 5.6 2.3 3.4 2.3 6.8h-12q0-1.3-0.9-2.5-0.9-1.1-2.7-1.8-1.8-0.8-4.2-0.8-3.5 0-5.4 1.4-2 1.3-2 3.2 0 1.5 1.4 2.5 1.4 1 4.3 1.5l7.2 1.1q7.5 1.2 11.2 4.7 3.8 3.5 3.8 9.4 0 3.9-2.3 7.1-2.2 3.3-6.7 5.1-4.5 1.9-11.1 1.9z"/>
		<path id="Layer" fill-rule="evenodd" class="s1" d="m180.7 78.7q-5.1 0-8.9-1.9-3.7-1.9-5.7-5-2-3.1-2-7.2 0-4.4 2-7.7 2.1-3.4 6.3-5.3 4.2-1.9 10.3-1.9h10.4v-0.9q0-3.4-2.1-5.4-2.1-2.1-5.5-2.1-2.1 0-3.7 0.7-1.6 0.7-2.5 1.7-1 1.1-1.3 2.3h-12.1q0.4-3.8 2.8-7.2 2.5-3.3 6.7-5.4 4.3-2.1 10.1-2c3.9 0 7.6 0.7 10.6 2.2q4.5 2.3 6.9 6.3 2.4 3.9 2.4 9v28.9h-10.6l-0.9-4.2h-0.5q-1.5 2-4.9 3.6-3.4 1.5-7.8 1.5zm2.3-9.7q3.2 0 5.5-1.1 2.3-1.2 3.5-3.4 1.1-2.2 1.1-5.1v-1.2h-8.9q-3.9 0-5.9 1.5-1.9 1.4-1.9 3.9c0 1.7 0.5 3 1.7 3.9q1.8 1.5 4.9 1.5z"/>
		<path id="Layer" class="s1" d="m218.4 77.8v-34h-7.3v-11.6h7.3v-6.9q0-5.4 3.3-8.6 3.2-3.2 8.9-3.2h10.1v10.7h-6.9q-1.5 0-2.3 0.8-0.8 0.8-0.8 2.2v5h10v11.6h-10v34c0 0-12.3 0-12.3 0z"/>
		<path id="Layer" fill-rule="evenodd" class="s1" d="m267.1 78.7q-6.8 0-12.1-3-5.3-3.1-8.4-8.5-3.1-5.4-3.1-12.2 0-6.7 3.1-12.1 3.1-5.5 8.4-8.5 5.3-3.1 12.1-3.1 6.3 0 11.5 3 5.3 3 8.2 8.3 3 5.2 3 11.6 0 1.4-0.2 2.7-0.1 1.3-0.3 1.9h-33.6q0.3 2.9 1.9 5 1.6 2.2 4.1 3.5 2.4 1.4 5.4 1.3 3.2 0.1 5.5-1.3 2.4-1.3 3.5-3h12.5q-1.1 3.4-3.7 6.6-2.7 3.3-7.3 5.5-4.5 2.3-10.5 2.3zm10.6-27.7q-0.4-2.7-1.8-5-1.4-2.2-3.7-3.5-2.2-1.2-5.1-1.2-3.1 0-5.5 1.2-2.4 1.3-3.9 3.5-1.5 2.3-2 5c0 0 22 0 22 0z"/>
		<path id="Layer" class="s1" d="m313 77.8q-6 0-9.2-3-3.2-3-3.2-8.6v-22.4h-7.2v-11.6h7.2v-13.9h12.3v13.9h10.3v11.6h-10.3v19.8q0 1.7 0.7 2.4 0.8 0.7 2.4 0.7h7.2v11.1c0 0-10.2 0-10.2 0z"/>
		<path id="Layer" class="s1" d="m332.7 95.8v-11.4h9.1q1.2 0 1.9-0.4 0.7-0.5 1.1-1.6l2-5.4v6.5l-19.7-51.3h13l11.1 29.8h1.8l10-29.8h13.1l-19.7 54.8q-1.7 4.6-4.4 6.7-2.7 2.1-8.2 2.1c0 0-11.1 0-11.1 0z"/>
	</g>
	<path id="Layer" class="s1" d="m395.1 47.9v-3.1l18-19.2q2.1-2.2 3-4.1 0.9-2 0.9-4.8 0-2.8-1.1-4.9-1.2-2.2-3.3-3.4-2-1.2-4.8-1.2c-1.8 0-3.3 0.5-4.7 1.3q-2.1 1.4-3.4 3.8-1.2 2.4-1.2 5.4h-3.7q0-4 1.7-7.2 1.7-3.2 4.6-5 2.9-1.8 6.7-1.9c2.5 0 4.7 0.6 6.7 1.7q3 1.7 4.6 4.6 1.7 3 1.7 6.8 0 2.6-0.6 4.6-0.6 1.9-1.7 3.5-1.1 1.6-2.8 3.5l-15.2 15.7v0.3h21.2v3.6h-26.6z"/>
</svg>