<svg xmlns="http://www.w3.org/2000/svg" xmlns:xlink="http://www.w3.org/1999/xlink" id="Ebene_2" data-name="Ebene 2" viewBox="0 0 412 96.05"><defs><style>      .cls-1 {        fill: url(#Unbenannter_Verlauf_13);      }      .cls-1, .cls-2 {        stroke-width: 0px;      }      .cls-2 {        fill: #1d1d1b;      }    </style><linearGradient id="Unbenannter_Verlauf_13" data-name="Unbenannter Verlauf 13" x1="63.56" y1="85.96" x2="21.19" y2="12.57" gradientUnits="userSpaceOnUse"><stop offset="0" stop-color="#bcb9a4"></stop><stop offset=".37" stop-color="#c1c559"></stop><stop offset=".72" stop-color="#c6cf18"></stop><stop offset=".88" stop-color="#c8d400"></stop></linearGradient></defs><g id="_4C_Pfade" data-name="4C Pfade"><g><path class="cls-1" d="m84.73,57.76l-42.81-23.18,1.43-2.63,41.39,22.41v-21.55c0-4.96-2.64-9.53-6.93-12.01L49.31,4.34c-4.29-2.48-9.58-2.48-13.87,0L6.93,20.79c-4.29,2.48-6.93,7.06-6.93,12.01v6.27l42.59,23.06-1.43,2.63L0,42.48v23.23c0,4.96,2.64,9.53,6.93,12.01l28.5,16.46c4.29,2.48,9.58,2.48,13.87,0l28.5-16.46c4.29-2.48,6.93-7.06,6.93-12.01v-7.99.02Z"></path><g><path class="cls-2" d="m129.07,75.05c-4.73,0-8.6-.81-11.62-2.42-3.02-1.62-5.22-3.57-6.59-5.88-1.38-2.3-2.06-4.5-2.06-6.59h11.93c0,.84.31,1.68.94,2.51.63.84,1.55,1.51,2.78,2.02,1.23.51,2.77.76,4.62.76,2.63,0,4.59-.42,5.88-1.26,1.29-.84,1.93-1.88,1.93-3.14s-.42-2.24-1.26-2.96c-.84-.72-2.3-1.26-4.4-1.62l-7-1.17c-5.02-.78-8.81-2.29-11.35-4.53-2.54-2.24-3.81-5.19-3.81-8.84,0-2.63.75-5.02,2.24-7.18,1.49-2.15,3.72-3.87,6.68-5.16,2.96-1.29,6.5-1.93,10.63-1.93s7.69.73,10.68,2.2c2.99,1.47,5.25,3.33,6.77,5.61,1.53,2.27,2.29,4.55,2.29,6.82h-11.93c0-.9-.3-1.73-.9-2.51-.6-.78-1.5-1.4-2.69-1.88-1.2-.48-2.6-.72-4.22-.72-2.33,0-4.14.45-5.43,1.35-1.29.9-1.93,1.97-1.93,3.23,0,1.02.46,1.85,1.39,2.51.93.66,2.35,1.14,4.26,1.44l7.18,1.17c5.02.78,8.78,2.33,11.26,4.67,2.48,2.33,3.72,5.47,3.72,9.42,0,2.57-.75,4.94-2.24,7.09-1.5,2.15-3.74,3.86-6.73,5.11-2.99,1.26-6.67,1.88-11.04,1.88Z"></path><path class="cls-2" d="m170.97,75.05c-3.41,0-6.36-.63-8.84-1.88-2.48-1.26-4.4-2.93-5.74-5.02-1.35-2.09-2.02-4.49-2.02-7.18,0-2.93.69-5.52,2.06-7.76,1.38-2.24,3.47-3.99,6.28-5.25,2.81-1.26,6.25-1.88,10.32-1.88h10.41v-.9c0-2.27-.7-4.1-2.11-5.47-1.41-1.38-3.25-2.06-5.52-2.06-1.44,0-2.68.22-3.72.67-1.05.45-1.88,1.03-2.51,1.75-.63.72-1.06,1.47-1.3,2.24h-12.11c.3-2.51,1.26-4.89,2.87-7.13s3.84-4.05,6.68-5.43c2.84-1.38,6.21-2.06,10.09-2.06s7.6.76,10.59,2.29c2.99,1.52,5.29,3.6,6.91,6.24,1.62,2.63,2.42,5.62,2.42,8.97v28.98h-10.68l-.9-4.22h-.45c-1.02,1.32-2.66,2.5-4.93,3.54-2.27,1.05-4.88,1.57-7.81,1.57Zm2.33-9.69c2.15,0,3.99-.39,5.52-1.17,1.53-.78,2.68-1.9,3.45-3.36.78-1.47,1.17-3.15,1.17-5.07v-1.26h-8.97c-2.57,0-4.52.49-5.83,1.48-1.32.99-1.97,2.32-1.97,3.99s.58,2.92,1.75,3.9c1.17.99,2.79,1.48,4.89,1.48Z"></path><path class="cls-2" d="m208.74,74.16v-34.01h-7.36v-11.57h7.36v-6.91c0-3.65,1.08-6.53,3.23-8.66,2.15-2.12,5.14-3.19,8.97-3.19h10.05v10.68h-6.91c-.96,0-1.71.27-2.24.81-.54.54-.81,1.29-.81,2.24v5.02h9.96v11.57h-9.96v34.01h-12.29Z"></path><path class="cls-2" d="m257.37,75.05c-4.49,0-8.51-1.02-12.07-3.05-3.56-2.03-6.37-4.86-8.43-8.48-2.06-3.62-3.1-7.67-3.1-12.16s1.03-8.54,3.1-12.16c2.06-3.62,4.87-6.44,8.43-8.48,3.56-2.03,7.58-3.05,12.07-3.05,4.19,0,8.03,1,11.53,3.01,3.5,2,6.24,4.76,8.21,8.25,1.97,3.5,2.96,7.37,2.96,11.62,0,.96-.04,1.85-.13,2.69-.09.84-.2,1.47-.31,1.88h-33.65c.24,1.92.88,3.6,1.93,5.07,1.05,1.47,2.39,2.63,4.04,3.5,1.64.87,3.46,1.3,5.43,1.3,2.15,0,4.01-.43,5.56-1.3,1.55-.87,2.72-1.87,3.5-3.01h12.47c-.72,2.21-1.97,4.41-3.77,6.59-1.79,2.18-4.2,4.02-7.22,5.52-3.02,1.49-6.54,2.24-10.54,2.24Zm10.59-27.73c-.24-1.79-.82-3.44-1.75-4.94-.93-1.49-2.15-2.66-3.68-3.5-1.53-.84-3.25-1.26-5.16-1.26-2.09,0-3.93.42-5.52,1.26-1.58.84-2.87,2-3.86,3.5-.99,1.5-1.66,3.14-2.02,4.94h21.98Z"></path><path class="cls-2" d="m303.31,74.16c-4.01,0-7.07-1-9.2-3.01-2.12-2-3.19-4.86-3.19-8.57v-22.43h-7.18v-11.57h7.18v-13.91h12.29v13.91h10.32v11.57h-10.32v19.83c0,1.14.24,1.93.72,2.38.48.45,1.26.67,2.33.67h7.27v11.13h-10.23Z"></path><path class="cls-2" d="m322.96,92.1v-11.31h9.15c.78,0,1.4-.17,1.88-.49.48-.33.84-.85,1.08-1.57l2.06-5.38v6.46l-19.74-51.23h13.01l11.13,29.79h1.79l9.96-29.79h13.1l-19.65,54.73c-1.14,3.11-2.6,5.35-4.4,6.73-1.79,1.38-4.55,2.06-8.25,2.06h-11.13Z"></path></g><path class="cls-2" d="m385.4,44.24v-3.12l18.01-19.13c1.41-1.5,2.42-2.89,3.02-4.17.6-1.29.9-2.87.9-4.74s-.38-3.52-1.15-4.95c-.77-1.43-1.85-2.55-3.24-3.36-1.39-.81-3-1.22-4.83-1.22s-3.32.45-4.74,1.34c-1.41.89-2.52,2.14-3.33,3.74-.81,1.6-1.21,3.4-1.21,5.39h-3.74c0-2.66.56-5.06,1.68-7.2,1.12-2.14,2.66-3.81,4.61-5.02,1.95-1.2,4.2-1.81,6.73-1.81s4.72.55,6.7,1.65c1.97,1.1,3.51,2.64,4.61,4.61,1.1,1.97,1.65,4.25,1.65,6.82,0,1.7-.2,3.21-.59,4.52-.39,1.31-.96,2.5-1.68,3.58-.73,1.08-1.67,2.22-2.84,3.43l-15.14,15.76v.31h21.19v3.55h-26.61Z"></path></g></g></svg>